<?xml version="1.0"?>
<svg xmlns:rdf="http://www.w3.org/1999/02/22-rdf-syntax-ns#" xmlns="http://www.w3.org/2000/svg" xmlns:cc="http://web.resource.org/cc/" xmlns:xlink="http://www.w3.org/1999/xlink" xmlns:dc="http://purl.org/dc/elements/1.1/" xmlns:svg="http://www.w3.org/2000/svg" space="preserve" viewBox="0 0 295.672 372.082" enable-background="new 0 0 295.672 372.082" overflow="visible">
  <g id="Layer_1">
    <g clip-rule="evenodd" fill-rule="evenodd">
      <path d="m122.29 0c-44.782 9.288-76.606 23.688-96.982 44.316-20.232 20.7-20.736 51.012-24.012 78.154-3.384 26.964 0.468 59.364 4.212 82.62 3.708 23.04 9.288 38.88 18 55.296 8.676 16.309 21.384 29.484 33.66 42.048 12.24 12.42 20.304 20.88 39.06 32.473 18.792 11.556 44.928 33.912 72.143 36.647 27.109 2.592 56.125-4.319 88.85-20.88 18.035-14.904 29.412-34.416 35.1-59.508 5.363-25.309 4.283-59.58-2.125-90.324-6.516-30.852-23.146-66.672-36.143-92.448-13.033-25.848-19.441-42.3-41.438-60.588-22.25-18.22-51.81-33.88-90.33-47.812z" fill="#ABD148"/>
      <path d="m161.14 368.1c-8.82-2.987-35.713-15.66-51.661-25.235-15.876-9.612-28.44-17.641-42.696-31.86-14.4-14.436-34.452-39.384-42.66-53.46-8.172-14.04-11.052-35.172-6.012-30.061 5.148 5.185 28.836 50.688 36.072 60.696 6.948 9.756 0.756-5.328 6.012-1.8 5.328 3.6 17.352 17.46 25.236 22.824 7.74 5.22 14.796 2.844 21.024 8.424 6.12 5.544 6.516 17.46 15.624 24.624 9.036 7.092 31.859 12.96 38.484 17.46 6.48 4.37 9.07 11.1 0.58 8.4z" fill="#9ED231"/>
      <path d="m31.896 216.43c-4.896-22.896-6.444-61.02-6.048-86.328 0.324-25.38 2.916-47.304 8.316-64.368 5.328-17.028 11.628-27.72 23.472-37.08 11.844-9.464 31.608-17.024 46.944-18.932 15.228-1.98 26.352-0.288 43.92 7.56 17.568 7.884 42.623 20.412 60.588 39.384 17.82 18.936 32.977 47.952 45.469 73.44 12.348 25.452 22.932 53.496 28.008 78.012 4.896 24.443 3.455 46.728 1.512 67.392-2.016 20.484-4.248 40.428-13.645 54.54-9.719 13.932-26.568 23.796-43.164 28.764-16.596 4.788-35.064 7.38-55.26 0-20.34-7.632-45.396-29.052-65.16-44.676-19.872-15.804-39.6-32.004-52.236-48.456-12.576-16.36-17.976-26.62-22.728-49.23z" fill="#E7F2D6"/>
      <path d="m140.18 171c-26.964-20.88-47.592-37.512-62.856-50.724-15.224-13.18-23.216-17.79-28.004-28.012-4.824-10.368-7.02-23.148-0.756-33.336 6.228-10.296 26.892-32.616 37.836-27.252 10.872 5.508 19.512 39.708 27.288 59.832 7.704 20.124 13.968 39.636 18.936 59.796 2.51 6.55 5.03 13.1 7.55 19.69z" fill="#ABD148"/>
      <path d="m133.38 130.86c-3.06-13.68-7.308-28.296-12.888-44.676-5.652-16.56-21.312-41.724-20.448-52.992 0.936-11.196 17.424-14.4 25.74-13.644 8.28 0.756 15.912 6.768 23.472 18.18-2.556-0.396-2.556-0.396 0 0 2.557 0.36 11.916-3.276 15.156 2.268 3.133 5.436 5.184 9.288 3.779 30.312-1.619 21.204-5.723 52.452-12.852 95.4-1.549-1.188-3.061-1.692-4.535-1.512-1.549 0.072-3.025 0.828-4.573 2.268-4.28-11.85-8.57-23.73-12.85-35.61z" fill="#ABD148"/>
      <path d="m165.17 163.44c-0.145-11.412 8.389-46.368 12.133-63.612 3.635-17.316 4.787-35.676 9.828-39.384 4.967-3.6 12.635 9.432 19.691 17.424 7.02 7.776 18.504 19.512 21.959 29.52 3.205 10.044 6.193 20.196-2.268 30.312-8.711 9.972-38.051 25.128-48.455 29.52-10.3 4.28-12.78 7.38-12.89-3.78z" fill="#ABD148"/>
      <path d="m172.76 180.11c2.953-3.888 14.869-5.436 25.74-10.62 10.908-5.256 30.168-18.18 38.629-20.448 8.135-2.376 6.012-0.468 10.584 6.84 4.5 7.38 13.752 26.964 16.668 37.08 2.916 9.936 6.588 20.52 0.756 22.716-6.084 2.052-22.32-5.939-36.361-9.828-14.184-4.032-38.23-9.324-47.699-13.644-9.43-4.33-11.23-8.36-8.32-12.1z" fill="#ABD148"/>
      <path d="m171.25 193.72c5.688-0.18 30.023 13.86 44.676 18.937 14.58 4.823 32.545 5.544 41.652 10.619 8.82 5.076 9.217 12.097 11.34 19.692 2.016 7.452 1.943 17.676 0.756 24.984-1.332 7.344-2.16 18.216-8.316 18.18-6.264-0.36-19.475-11.088-28.799-19.692-9.576-8.783-18.793-23.004-27.252-31.823-8.568-8.893-16.885-13.536-22.717-20.448-5.79-6.95-16.88-20.2-11.34-20.45z" fill="#ABD148"/>
      <path d="m128.81 174.82c-6.516-7.956-33.156-25.56-47.7-37.116-14.51-11.56-30.998-30.24-38.63-31.07-7.596-0.648-6.768 16.416-6.804 26.496-0.216 9.828-0.792 25.416 6.048 32.58 6.912 6.984 21.816 6.84 34.848 9.864 12.996 3.024 33.48 8.388 42.408 8.316 8.71-0.18 16.02-1.44 9.83-9.07z" fill="#ABD148"/>
      <path d="m141.7 199.04c-13.14-2.664-27.252-4.428-43.164-5.328-15.948-0.864-38.988-8.892-51.48 0s-1.404 24.768 1.512 35.604c2.916 10.8 6.624 16.955 15.876 28.764 9.36 11.88 29.916 36.468 39.384 41.652 9.396 5.004 11.304-0.937 16.668-11.341 5.364-10.512 11.556-35.676 15.156-50.76 3.55-15 5.5-27.63 6.04-38.58z" fill="#ABD148"/>
      <path d="m146.99 228.56c-2.412 9.181-5.904 23.221-9.072 37.116-3.312 13.896-9.936 34.74-9.864 45.433 0 10.476 3.168 11.376 10.62 17.424 7.56 5.976 23.184 15.407 34.092 18.18 10.873 2.628 25.129 1.08 30.275-2.304 4.861-3.492 4.285-4.032-0.756-18.145-5.256-14.472-22.176-47.016-29.52-66.672-7.271-19.691-10.152-41.76-13.645-49.968-3.563-8.172-5.615-1.656-7.559 1.512-2.12 3.14-2.3 8.25-4.57 17.43z" fill="#ABD148"/>
      <path d="m169.7 217.98c2.412 9.108 5.186 22.104 11.377 38.593 6.156 16.38 16.848 45.792 24.984 59.075 7.92 13.177 14.795 20.845 22.715 19.692 7.885-1.368 21.42-19.8 24.229-27.252 2.557-7.452-1.043-8.172-8.316-17.424-7.523-9.504-28.188-29.7-35.604-38.628-7.344-8.929-2.809-7.849-8.316-14.4-5.652-6.66-19.26-19.152-24.984-24.983-5.688-5.94-8.207-10.692-9.107-9.828-1.01 0.83 0.47 6.16 3.02 15.16z" fill="#ABD148"/>
      <path d="m188.64 251.28c-1.404 0.107 4.5 17.172 9.107 26.495 4.645 9.108 16.633 27.9 18.18 28.045 1.225-0.145-5.256-18.937-9.863-28.045-4.69-9.33-15.95-26.39-17.43-26.5z" fill="#E7F2D6"/>
      <path d="m212.87 269.46c1.621-0.324 20.27 24.048 22.752 29.52 2.125 5.328-5.219 7.057-9.107 2.269-3.96-5.15-15.12-31.25-13.64-31.79z" fill="#E7F2D6"/>
      <path d="m198.5 217.19c-0.863-0.144 7.561 5.221 12.096 9.864 4.355 4.608 13.465 17.172 14.4 17.424 0.791 0.036-4.68-12.096-9.072-16.668-4.57-4.67-16.49-10.43-17.43-10.61z" fill="#E7F2D6"/>
      <path d="m220.46 221c2.375 0.396 27.898 11.592 31.031 13.608 2.771 1.764-8.389 0.035-13.607-2.269-5.21-2.41-19.72-11.7-17.42-11.34z" fill="#E7F2D6"/>
      <path d="m200.02 174.02c1.836-1.332 0.145 0.576 7.561-1.512 7.344-2.232 33.443-11.196 36.359-11.34 2.592-0.108-11.699 7.308-19.691 10.584-8.1 3.096-23.869 7.92-28.008 8.352-4.11 0.33 1.83-4.89 3.78-6.08z" fill="#E7F2D6"/>
      <path d="m221.98 192.2c1.547 0.864 9.576 2.052 15.912 3.023 6.191 0.828 22.607 3.061 21.203 2.269-1.691-1.044-24.012-6.624-30.313-7.561-6.19-0.89-8.46 1.34-6.8 2.27z" fill="#E7F2D6"/>
      <path d="m178.06 152.82c0.719 0.72 13.967-7.524 21.959-13.608 7.813-6.192 25.488-21.816 24.984-22.716-0.793-0.864-20.881 11.232-28.764 17.388-7.92 6.12-18.8 17.9-18.18 18.94z" fill="#E7F2D6"/>
      <path d="m198.5 115.74c2.125-1.188 12.133-11.916 12.096-12.888-0.145-1.008-10.908 4.5-12.852 6.804-2.05 2.13-1.48 7.17 0.75 6.09z" fill="#E7F2D6"/>
      <path d="m155.34 61.956c0.611 0.684 0.863 21.456 0.756 31.068-0.145 9.468-0.973 26.28-1.512 25.74-0.793-0.756-2.34-20.052-2.268-29.556 0.07-9.572 2.37-27.86 3.02-27.248z" fill="#E7F2D6"/>
      <path d="m125.03 40.752c1.368 3.348 8.316 39.744 8.352 43.92-0.036 3.888-6.984-12.348-8.352-19.692-1.44-7.452-1.44-27.468 0-24.228z" fill="#E7F2D6"/>
      <path d="m133.38 96.804c-0.324 0.252 1.728 10.404 3.78 18.936 1.836 8.532 7.128 31.86 7.56 31.788 0.36-0.432-3.492-24.768-5.292-33.3-1.95-8.64-5.73-17.642-6.05-17.426z" fill="#E7F2D6"/>
      <path d="m100.8 82.404c2.088 3.6 10.476 30.132 13.644 40.14 2.988 9.9 6.444 22.32 4.536 18.936-2.124-3.672-13.608-30.24-16.668-40.14-3.058-10.008-3.562-22.428-1.51-18.936z" fill="#E7F2D6"/>
      <path d="m65.196 86.184c1.332 2.268 16.272 19.224 18.18 20.448 1.62 1.008-4.464-10.188-7.56-13.608-3.168-3.49-11.844-9.106-10.62-6.838z" fill="#E7F2D6"/>
      <path d="m69.012 58.176c-0.144 0.612 6.084 10.62 7.56 12.096 1.368 1.368 1.944-1.836 0.756-3.78-1.296-2.052-8.28-9.036-8.316-8.316z" fill="#E7F2D6"/>
      <path d="m75.816 54.396c0.54 1.512 11.124 16.596 12.888 18.18 1.62 1.44-0.972-6.084-3.06-9.108-2.232-3.168-10.368-10.548-9.828-9.072z" fill="#E7F2D6"/>
      <path d="m98.532 160.42c-6.3-2.916-21.06-11.304-24.984-12.132-3.96-0.936-4.752 3.888 1.512 6.84 6.3 2.952 31.5 9.576 35.604 10.584 3.78 0.79-5.9-2.41-12.128-5.29z" fill="#E7F2D6"/>
      <path d="m50.832 161.17c3.528 1.368 32.436 7.596 34.812 7.56 2.16-0.144-15.408-7.128-21.204-8.316-6.012-1.29-17.028-0.71-13.608 0.76z" fill="#E7F2D6"/>
      <path d="m56.88 200.56c2.556-0.54 41.256 1.944 46.944 3.024 5.292 0.972-6.48 3.456-14.364 3.023-7.952-0.54-34.916-5.61-32.576-6.04z" fill="#E7F2D6"/>
      <path d="m109.91 210.38c-0.072-1.008-12.852 4.716-20.448 7.596-7.776 2.88-24.912 7.849-25.02 9.072 0.108 0.9 17.244-0.252 25.02-3.023 7.594-2.85 20.378-12.67 20.448-13.65z" fill="#E7F2D6"/>
      <path d="m129.56 218.74c0.792 1.979-3.06 34.02-5.292 43.92-2.304 9.72-7.524 16.128-8.316 14.363-0.864-2.052 0.648-15.947 3.024-25.739 2.31-9.83 9.59-34.42 10.59-32.54z" fill="#E7F2D6"/>
      <path d="m149.26 264.17c-0.648 1.188-5.724 35.676-6.048 41.652-0.432 5.651 2.772 0.18 3.78-6.841 1.04-7.13 2.77-35.86 2.27-34.81z" fill="#E7F2D6"/>
      <path d="m157.61 249.77c-0.576 1.261 1.98 21.601 5.293 31.032 3.313 9.324 13.752 25.236 14.4 24.264 0.467-1.296-8.137-21.743-11.377-31.067-3.38-9.32-7.77-25.3-8.31-24.22z" fill="#E7F2D6"/>
      <path d="m16.128 206.35c-2.124-0.792-7.02 2.305-7.596 3.313-0.504 0.899 3.42 0.647 4.536 2.16 0.936 1.403 0.36 5.651 1.62 6.228 1.188 0.36 5.508-1.656 5.76-3.563 0.108-1.98-2.304-7.38-4.32-8.14z" fill="#D1ECA9"/>
      <path d="m18.216 204.84c-2.016-0.756-7.128 2.232-7.56 3.276-0.576 0.792 3.42 0.72 4.5 2.159 0.936 1.404 0.36 5.652 1.62 6.229 1.188 0.36 5.508-1.656 5.76-3.564 0.108-2.03-2.304-7.32-4.32-8.11z" fill="#86A338"/>
      <path d="m91.116 326.34c-0.756 1.152 6.588 9.252 9.108 10.008 2.268 0.504 6.588-4.859 5.04-6.516-1.62-1.73-13.28-4.61-14.144-3.49z" fill="#D1ECA9"/>
      <path d="m93.42 325.15c-0.756 1.044 6.588 9.323 9.108 9.972 2.304 0.468 6.516-4.788 5.004-6.48-1.58-1.72-13.318-4.6-14.11-3.49z" fill="#86A338"/>
      <path d="m38.412 271.48c-0.54 0.756-0.144 1.98 0.864 2.7 1.044 0.72 2.304 0.72 2.844-0.036s0.18-1.979-0.864-2.7c-1.008-0.76-2.268-0.72-2.844 0.04z" fill="#D1ECA9"/>
      <path d="m38.736 270.72c-0.54 0.756-0.144 1.98 0.864 2.736 1.044 0.72 2.304 0.684 2.844-0.072s0.144-1.944-0.864-2.7c-1.044-0.73-2.304-0.73-2.844 0.03z" fill="#86A338"/>
      <path d="m3.096 123.8c-0.54 0.756-0.144 1.98 0.864 2.7 1.044 0.756 2.304 0.72 2.844-0.036s0.18-1.98-0.864-2.7c-1.008-0.71-2.304-0.71-2.844 0.04z" fill="#D1ECA9"/>
      <path d="m3.42 123.08c-0.54 0.756-0.18 1.98 0.864 2.7 1.008 0.72 2.304 0.72 2.844-0.036s0.144-1.98-0.864-2.7c-1.044-0.75-2.304-0.71-2.844 0.04z" fill="#86A338"/>
      <path d="m142.63 355.36c-0.54 0.757-0.144 1.98 0.9 2.7 1.008 0.756 2.268 0.72 2.808-0.036s0.18-1.979-0.864-2.699c-1.01-0.76-2.27-0.72-2.85 0.04z" fill="#D1ECA9"/>
      <path d="m142.96 354.64c-0.54 0.756-0.144 1.944 0.864 2.7 1.044 0.72 2.304 0.72 2.844-0.036 0.54-0.792 0.144-1.979-0.864-2.736-1.01-0.72-2.3-0.68-2.84 0.08z" fill="#86A338"/>
      <path d="m11.304 89.388c-0.972 1.332-0.288 3.456 1.512 4.752s4.068 1.26 5.004-0.072c0.972-1.332 0.288-3.492-1.512-4.788s-4.068-1.26-5.004 0.108z" fill="#D1ECA9"/>
      <path d="m11.844 88.092c-0.972 1.332-0.288 3.456 1.512 4.752 1.836 1.296 4.068 1.26 5.04-0.072 0.936-1.332 0.288-3.492-1.548-4.788-1.8-1.296-4.032-1.26-5.004 0.108z" fill="#86A338"/>
      <path d="m22.572 237.85c-0.972 1.332-0.288 3.492 1.512 4.788s4.068 1.26 5.04-0.071c0.936-1.368 0.252-3.492-1.548-4.788-1.8-1.3-4.032-1.26-5.004 0.07z" fill="#D1ECA9"/>
      <path d="m23.112 236.56c-0.972 1.332-0.288 3.492 1.548 4.788 1.8 1.296 4.032 1.26 5.004-0.072 0.936-1.367 0.288-3.491-1.548-4.788-1.8-1.3-4.032-1.27-5.004 0.07z" fill="#86A338"/>
      <path d="m69.552 305.82c-0.54 0.756-0.144 1.979 0.864 2.699 1.044 0.756 2.304 0.721 2.844-0.036 0.54-0.756 0.18-1.979-0.864-2.699-1.008-0.75-2.268-0.72-2.844 0.04z" fill="#D1ECA9"/>
      <path d="m69.876 305.1c-0.54 0.756-0.144 1.944 0.864 2.7 1.044 0.72 2.304 0.72 2.844-0.036 0.54-0.792 0.144-1.979-0.864-2.735-1.044-0.71-2.304-0.68-2.844 0.08z" fill="#86A338"/>
      <path d="m30.564 47.916c-0.54 0.756-0.144 1.944 0.864 2.7 1.044 0.72 2.304 0.72 2.844-0.072 0.54-0.756 0.18-1.944-0.864-2.7-1.008-0.72-2.304-0.72-2.844 0.072z" fill="#D1ECA9"/>
      <path d="m30.888 47.16c-0.54 0.756-0.18 1.979 0.864 2.7 1.008 0.756 2.304 0.72 2.844-0.036s0.144-1.98-0.864-2.7c-1.044-0.756-2.304-0.72-2.844 0.036z" fill="#86A338"/>
    </g>
  </g>
  <metadata>
    <rdf:RDF>
      <cc:Work>
        <dc:format>image/svg+xml</dc:format>
        <dc:type rdf:resource="http://purl.org/dc/dcmitype/StillImage"/>
        <cc:license rdf:resource="http://creativecommons.org/licenses/publicdomain/"/>
        <dc:publisher>
          <cc:Agent rdf:about="http://openclipart.org/">
            <dc:title>Openclipart</dc:title>
          </cc:Agent>
        </dc:publisher>
        <dc:title>Lime variations</dc:title>
        <dc:date>2007-11-16T03:04:52</dc:date>
        <dc:description>clip art, clipart, food, food, fruit, fruit, image, lime, lime, media, png, public domain, svg, </dc:description>
        <dc:source>http://openclipart.org/detail/8600/lime-variations-by-gerald_g-8600</dc:source>
        <dc:creator>
          <cc:Agent>
            <dc:title>Gerald_G</dc:title>
          </cc:Agent>
        </dc:creator>
        <dc:subject>
          <rdf:Bag>
            <rdf:li>clip art</rdf:li>
            <rdf:li>clipart</rdf:li>
            <rdf:li>food</rdf:li>
            <rdf:li>fruit</rdf:li>
            <rdf:li>image</rdf:li>
            <rdf:li>lime</rdf:li>
            <rdf:li>media</rdf:li>
            <rdf:li>png</rdf:li>
            <rdf:li>public domain</rdf:li>
            <rdf:li>svg</rdf:li>
          </rdf:Bag>
        </dc:subject>
      </cc:Work>
      <cc:License rdf:about="http://creativecommons.org/licenses/publicdomain/">
        <cc:permits rdf:resource="http://creativecommons.org/ns#Reproduction"/>
        <cc:permits rdf:resource="http://creativecommons.org/ns#Distribution"/>
        <cc:permits rdf:resource="http://creativecommons.org/ns#DerivativeWorks"/>
      </cc:License>
    </rdf:RDF>
  </metadata>
</svg>
